<svg id="Sprechblase_i" xmlns="http://www.w3.org/2000/svg" width="23.22" height="22.886" viewBox="0 0 23.22 22.886">
  <path id="Combined_Shape" data-name="Combined Shape" d="M3.956,22.842a2.4,2.4,0,0,1-.765-2.057L3,17.85c-2.459-2.525-3.705-5-3.705-7.349A10.046,10.046,0,0,1,2.723,3.075,11.679,11.679,0,0,1,10.5,0a13.449,13.449,0,0,1,8.182,2.748A9.617,9.617,0,0,1,22.514,10.5c0,3.712-1.3,6.512-3.857,8.323A14.437,14.437,0,0,1,10.45,21.05,10.277,10.277,0,0,1,7.4,20.6L5.749,22.053a2.751,2.751,0,0,1-1.545.833A.659.659,0,0,1,3.956,22.842ZM.91,10.628c0,1.978,1.074,4.055,3.19,6.172l.45.45v3.812a.164.164,0,0,0,.122.058.449.449,0,0,0,.266-.158l.012-.012,2.1-2.1.851.25a9.133,9.133,0,0,0,2.6.4c5,0,10.373-2.777,10.373-8.872C20.873,4.636,15.655,1.5,10.5,1.5,5.391,1.5.91,5.765.91,10.628ZM9.9,16V9.5h2V16Zm-.25-9.25A1.25,1.25,0,1,1,10.9,8,1.25,1.25,0,0,1,9.654,6.75Z" transform="translate(0.706)" fill="#262626"/>
</svg>
